<svg xmlns="http://www.w3.org/2000/svg" version="1.1" xmlns:xlink="http://www.w3.org/1999/xlink" xmlns:svgjs="http://svgjs.dev/svgjs" width="1500" height="362" viewBox="0 0 1500 362"><g transform="matrix(1,0,0,1,0.25491573033696113,-0.34937209302324845)"><svg viewBox="0 0 356 86" data-background-color="#ffffff" preserveAspectRatio="xMidYMid meet" height="362" width="1500" xmlns="http://www.w3.org/2000/svg" xmlns:xlink="http://www.w3.org/1999/xlink"><g id="tight-bounds" transform="matrix(1,0,0,1,-0.06049999999996203,0.08299999999999841)"><svg viewBox="0 0 356.12052 85.83388483161204" height="85.83388483161204" width="356.12052"><g><svg viewBox="0 0 356.12052 85.83388483161204" height="85.83388483161204" width="356.12052"><g><svg viewBox="0 0 356.12052 85.83388483161204" height="85.83388483161204" width="356.12052"><g><path d="M0 85.834v-85.834h356.121v85.834z" fill="#27292a" stroke="transparent" stroke-width="0" rx="0%" data-fill-palette-color="tertiary"></path><path d="M3.283 82.551v-79.268h349.554v79.268z" fill="#ffffff" stroke="transparent" stroke-width="0" rx="0%" data-fill-palette-color="quaternary"></path><path d="M9.85 75.984v-66.134h336.421v66.134z" fill="#27292a" stroke="transparent" stroke-width="0" data-fill-palette-color="tertiary"></path></g><g transform="matrix(1,0,0,1,19.69974,19.69974)" id="textblocktransform"><svg viewBox="0 0 316.72104 46.43440483161205" height="46.43440483161205" width="316.72104" id="textblock"><g><svg viewBox="0 0 316.72104 46.43440483161205" height="46.43440483161205" width="316.72104"><g transform="matrix(1,0,0,1,0,0)"><svg width="316.72104" viewBox="2.1 -32.3 222.68 32.65" height="46.43440483161205" data-palette-color="#ffffff"><path d="M13.35-32.3Q16.8-32.3 20.5-30.8L20.5-30.8 19.85-26.95 19.15-26.75Q17.7-27.85 16.07-28.45 14.45-29.05 12.85-29.05L12.85-29.05Q11-29.05 9.63-28.3 8.25-27.55 7.53-26.35 6.8-25.15 6.8-23.85L6.8-23.85Q6.8-22.5 7.63-21.48 8.45-20.45 9.7-19.7 10.95-18.95 13.1-17.9L13.1-17.9Q15.8-16.65 17.45-15.58 19.1-14.5 20.28-12.85 21.45-11.2 21.45-8.85L21.45-8.85Q21.45-6.35 20.1-4.25 18.75-2.15 16.3-0.9 13.85 0.35 10.7 0.35L10.7 0.35Q8.6 0.35 6.33-0.23 4.05-0.8 2.1-1.9L2.1-1.9 2.6-6 3.15-6.25Q4.9-4.55 7.03-3.73 9.15-2.9 11.1-2.9L11.1-2.9Q13-2.9 14.48-3.65 15.95-4.4 16.73-5.65 17.5-6.9 17.5-8.3L17.5-8.3Q17.5-10.4 15.9-11.68 14.3-12.95 11.05-14.45L11.05-14.45Q8.4-15.75 6.8-16.78 5.2-17.8 4.05-19.43 2.9-21.05 2.9-23.4L2.9-23.4Q2.9-25.85 4.23-27.9 5.55-29.95 7.93-31.13 10.3-32.3 13.35-32.3L13.35-32.3ZM36.6-24.95Q40.55-24.95 42.67-23.05 44.8-21.15 44.8-17.55L44.8-17.55Q44.8-13.35 42.12-10.98 39.45-8.6 34.75-8.6L34.75-8.6 31.7-8.6 31.7-7.8 31.8 0 28.1 0 28.25-7.5 28.1-24.9 36.6-24.95ZM35.95-11.5Q40.9-12.35 40.9-17.25L40.9-17.25Q40.9-19.6 39.57-20.75 38.25-21.9 35.6-22L35.6-22 31.8-21.95 31.75-11.6 35.95-11.5ZM59.95-3L66.59-3.2 66.9-2.9 66.55 0 51.4 0 51.55-7.5 51.4-24.9 66.65-24.9 66.9-24.6 66.59-21.7 60.3-21.9 55.1-21.85 55.05-14.3 60-14.25 64.34-14.4 64.59-14.05 64.3-11.1 59.7-11.25 55.05-11.2 55-7.8 55.05-3.05 59.95-3ZM93.94-25L93.79-7.45 93.84 0 89.84 0 76.74-19 76.49-19 76.44-8.3 76.54 0 73.14 0 73.29-7.35 73.19-24.9 77.14-24.9 90.24-5.9 90.59-5.9 90.49-24.75 93.94-25ZM112.69-25.1Q118.39-25.1 121.42-22.05 124.44-19 124.44-13.3L124.44-13.3Q124.44-6.75 121.14-3.25 117.84 0.25 111.69 0.25L111.69 0.25Q109.94 0.25 107.52 0.18 105.09 0.1 102.94 0L102.94 0 103.09-7.5 102.94-24.9 112.69-25.1ZM112.29-2.8Q116.29-2.8 118.47-5.23 120.64-7.65 120.64-12.55L120.64-12.55Q120.64-17.35 118.59-19.65 116.54-21.95 112.39-21.95L112.39-21.95Q109.94-21.95 106.64-21.75L106.64-21.75 106.54-7.8 106.59-3.1Q108.04-3 109.64-2.9 111.24-2.8 112.29-2.8L112.29-2.8ZM170.19-32.05L158.69 0 154.54 0 148.29-18.6 147.94-18.6 141.34 0 137.19 0 126.99-32.05 130.99-32.05 131.54-28.95 139.34-4.45 139.69-4.45 146.59-23.95 143.89-32.05 147.99-32.05 148.74-28.6 156.64-4.45 156.94-4.45 165.64-28.75 166.39-32.05 170.19-32.05ZM178.84-24.9L178.69-7.8 178.79 0 175.09 0 175.24-7.5 175.09-24.9 178.84-24.9ZM195.38-25.15Q198.43-25.15 201.48-23.95L201.48-23.95 200.83-20.25 200.23-20.1Q198.83-21.2 197.58-21.73 196.33-22.25 194.98-22.25L194.98-22.25Q192.83-22.25 191.58-21.13 190.33-20 190.33-18.55L190.33-18.55Q190.33-17.1 191.56-16.2 192.78-15.3 195.33-14.2L195.33-14.2Q197.58-13.2 198.91-12.4 200.23-11.6 201.21-10.28 202.18-8.95 202.18-7.05L202.18-7.05Q202.18-5.1 201.13-3.43 200.08-1.75 198.06-0.73 196.03 0.3 193.23 0.3L193.23 0.3Q191.48 0.3 189.56-0.13 187.63-0.55 185.98-1.4L185.98-1.4 186.43-5.35 186.93-5.55Q188.33-4.15 190.21-3.38 192.08-2.6 193.68-2.6L193.68-2.6Q195.78-2.6 197.13-3.73 198.48-4.85 198.48-6.45L198.48-6.45Q198.48-7.95 197.26-8.85 196.03-9.75 193.43-10.95L193.43-10.95Q191.28-11.9 189.91-12.7 188.53-13.5 187.58-14.83 186.63-16.15 186.63-18.05L186.63-18.05Q186.63-20.05 187.71-21.65 188.78-23.25 190.76-24.2 192.73-25.15 195.38-25.15L195.38-25.15ZM217.83-3L224.48-3.2 224.78-2.9 224.43 0 209.28 0 209.43-7.5 209.28-24.9 224.53-24.9 224.78-24.6 224.48-21.7 218.18-21.9 212.98-21.85 212.93-14.3 217.88-14.25 222.23-14.4 222.48-14.05 222.18-11.1 217.58-11.25 212.93-11.2 212.88-7.8 212.93-3.05 217.83-3Z" opacity="1" transform="matrix(1,0,0,1,0,0)" fill="#ffffff" class="wordmark-text-0" data-fill-palette-color="quaternary" id="text-0"></path></svg></g></svg></g></svg></g></svg></g><g></g></svg></g><defs></defs></svg><rect width="356.12052" height="85.83388483161204" fill="none" stroke="none" visibility="hidden"></rect></g></svg></g></svg>